<svg width="32" height="32" viewBox="0 0 32 32" fill="none" xmlns="http://www.w3.org/2000/svg">
  <defs>
    <linearGradient id="crystalGrad" x1="0%" y1="0%" x2="100%" y2="100%">
      <stop offset="0%" style="stop-color:#8B5CF6;stop-opacity:1" />
      <stop offset="50%" style="stop-color:#3B82F6;stop-opacity:1" />
      <stop offset="100%" style="stop-color:#1E40AF;stop-opacity:1" />
    </linearGradient>
    <linearGradient id="sparkleGrad" x1="0%" y1="0%" x2="100%" y2="100%">
      <stop offset="0%" style="stop-color:#FFD700;stop-opacity:1" />
      <stop offset="100%" style="stop-color:#F59E0B;stop-opacity:1" />
    </linearGradient>
    <filter id="glow">
      <feGaussianBlur stdDeviation="2" result="coloredBlur"/>
      <feMerge> 
        <feMergeNode in="coloredBlur"/>
        <feMergeNode in="SourceGraphic"/>
      </feMerge>
    </filter>
  </defs>
  
  <!-- Magical crystal gem -->
  <polygon points="16,6 22,12 16,18 10,12" fill="url(#crystalGrad)" filter="url(#glow)"/>
  
  <!-- Crystal facets -->
  <polygon points="16,6 19,9 16,12" fill="#A78BFA" opacity="0.7"/>
  <polygon points="16,12 19,15 16,18" fill="#6366F1" opacity="0.7"/>
  <polygon points="13,9 16,12 13,15" fill="#4F46E5" opacity="0.7"/>
  
  <!-- Magical sparkles -->
  <circle cx="8" cy="8" r="1.5" fill="url(#sparkleGrad)"/>
  <circle cx="24" cy="8" r="1" fill="url(#sparkleGrad)"/>
  <circle cx="6" cy="20" r="1" fill="url(#sparkleGrad)"/>
  <circle cx="26" cy="22" r="1.5" fill="url(#sparkleGrad)"/>
  <circle cx="16" cy="4" r="1" fill="url(#sparkleGrad)"/>
  <circle cx="16" cy="24" r="1" fill="url(#sparkleGrad)"/>
  
  <!-- Energy rings -->
  <circle cx="16" cy="16" r="12" fill="none" stroke="#8B5CF6" stroke-width="1" opacity="0.3"/>
  <circle cx="16" cy="16" r="8" fill="none" stroke="#3B82F6" stroke-width="1" opacity="0.2"/>
</svg>
